<svg width="512" height="512" viewBox="0 0 100 100" fill="none" xmlns="http://www.w3.org/2000/svg">
  <!-- Envoltorio del Cupcake (Marrón Chocolate) -->
  <path d="M20 60 L30 90 H70 L80 60 H20 Z" fill="#5D2E1F" stroke="#5D2E1F" stroke-width="2" stroke-linejoin="round"/>
  <!-- Líneas del envoltorio -->
  <path d="M35 90 L30 60" stroke="#8B4513" stroke-width="2"/>
  <path d="M50 90 L50 60" stroke="#8B4513" stroke-width="2"/>
  <path d="M65 90 L70 60" stroke="#8B4513" stroke-width="2"/>
  <!-- Glaseado (Crema Suave) -->
  <path d="M15 60 C15 45 25 35 35 35 C35 25 45 15 60 20 C75 15 85 30 85 40 C95 45 90 60 80 60 H20 C10 60 10 50 15 60 Z" fill="#FEF3C7" stroke="#D97706" stroke-width="2"/>
  <!-- Flecha de Crecimiento (Rojo) -->
  <path d="M30 55 L45 45 L60 55 L85 25" stroke="#DC2626" stroke-width="6" stroke-linecap="round" stroke-linejoin="round"/>
  <path d="M85 25 L70 25 M85 25 L85 40" stroke="#DC2626" stroke-width="6" stroke-linecap="round" stroke-linejoin="round"/>
  <!-- Monedas (Oro) -->
  <circle cx="75" cy="80" r="12" fill="#D98E28" stroke="#B45309" stroke-width="2"/>
  <text x="75" y="85" font-size="14" font-weight="bold" fill="#78350F" text-anchor="middle" font-family="Arial, sans-serif">$</text>
  <circle cx="25" cy="80" r="8" fill="#FCD34D" stroke="#D97706" stroke-width="2"/>
</svg>